<svg width="1024" height="617" viewBox="0 0 1024 617" fill="none" xmlns="http://www.w3.org/2000/svg">
<g clip-path="url(#clip0_1_3)">
<rect width="1024" height="617" fill="#1F1F24"/>
<path opacity="0.35" d="M1146.06 720C1144.19 716.76 1142.32 713.589 1140.47 710.395C1096.17 635.564 1033.07 596.98 980.208 601.332C796.362 602.791 765.684 646.872 840.27 719.954H1146.06V720Z" fill="url(#paint0_linear_1_3)"/>
<g clip-path="url(#clip1_1_3)">
<path d="M820.065 49.9744C820.065 42.9394 820.1 42.9742 813.065 42.9742C820.1 42.9742 820.065 43.009 820.065 35.974C820.065 43.009 820.03 42.9742 827.065 42.9742C820.03 42.9742 820.065 42.9394 820.065 49.9744Z" fill="#F3F3F3"/>
</g>
<g clip-path="url(#clip2_1_3)">
<path d="M871.065 148.83C871.065 141.292 871.1 141.329 864.065 141.329C871.1 141.329 871.065 141.367 871.065 133.829C871.065 141.367 871.03 141.329 878.065 141.329C871.03 141.329 871.065 141.292 871.065 148.83Z" fill="#F3F3F3"/>
</g>
<path d="M952.596 98.1219C948.437 95.2358 948.472 95.2295 945.585 99.3887C948.472 95.2295 948.478 95.2644 944.319 92.3782C948.478 95.2644 948.443 95.2707 951.329 91.1114C948.443 95.2707 948.437 95.2358 952.596 98.1219Z" fill="#F3F3F3"/>
<path d="M760.808 96.8551C756.649 93.969 756.684 93.9627 753.798 98.1219C756.684 93.9627 756.69 93.9975 752.531 91.1114C756.69 93.9975 756.655 94.0038 759.541 89.8446C756.655 94.0038 756.649 93.969 760.808 96.8551Z" fill="#F3F3F3"/>
<path opacity="0.35" d="M-107.471 679.87C-45.9414 596.333 -57.9213 575.809 26.0371 596.015C85.2823 610.262 205.197 557.149 257.588 596.569C325.643 647.726 336.113 641.245 396.124 596.015C477.103 535.058 624.006 556.141 697.556 640.435C720.318 666.549 742.163 699.509 764.834 727.496L-106.913 736.939L-107.471 679.87Z" fill="url(#paint1_linear_1_3)"/>
<path opacity="0.35" d="M183.389 653.571C236.575 549.366 243.941 560.074 317.015 585.686C368.579 603.747 454.785 501.405 500.483 550.914C559.846 615.165 712.668 633.748 764.676 577.436C834.858 501.547 818.92 501.873 883.184 607.582C903.071 640.331 922.188 681.635 942.004 716.726L184.087 724.936L183.389 653.571Z" fill="url(#paint2_linear_1_3)"/>
</g>
<defs>
<linearGradient id="paint0_linear_1_3" x1="993.233" y1="547.328" x2="913.552" y2="745.524" gradientUnits="userSpaceOnUse">
<stop stop-color="#96FFE1" stop-opacity="0.67"/>
<stop offset="1" stop-color="#00C48C"/>
</linearGradient>
<linearGradient id="paint1_linear_1_3" x1="340.206" y1="426.898" x2="437.087" y2="810.311" gradientUnits="userSpaceOnUse">
<stop stop-color="#96FFE1" stop-opacity="0.62"/>
<stop offset="1" stop-color="#00C48C"/>
</linearGradient>
<linearGradient id="paint2_linear_1_3" x1="571.684" y1="339.09" x2="734.076" y2="791.381" gradientUnits="userSpaceOnUse">
<stop stop-color="#96FFE1" stop-opacity="0.62"/>
<stop offset="1" stop-color="#00C48C"/>
</linearGradient>
<clipPath id="clip0_1_3">
<rect width="1024" height="617" fill="white"/>
</clipPath>
<clipPath id="clip1_1_3">
<rect width="14" height="14" fill="white" transform="translate(813.065 38)"/>
</clipPath>
<clipPath id="clip2_1_3">
<rect width="14" height="15" fill="white" transform="translate(864.065 136)"/>
</clipPath>
</defs>
</svg>
